HIERARCHY
ROOT hip
{
	OFFSET 0.000000 0.000000 0.000000 
	CHANNELS 6 Xposition Yposition Zposition Xrotation Zrotation Yrotation
	JOINT abdomen
	{
		OFFSET 0.000000 3.402643 0.000000 
		CHANNELS 3 Xrotation Zrotation Yrotation
		JOINT chest
		{
			OFFSET 0.000000 8.438565 -0.680529 
			CHANNELS 3 Xrotation Zrotation Yrotation
			JOINT neck
			{
				OFFSET 0.000000 10.207942 -0.272212 
				CHANNELS 3 Xrotation Zrotation Yrotation
				JOINT head
				{
					OFFSET 0.000000 3.130431 0.000000 
					CHANNELS 3 Xrotation Zrotation Yrotation
					End Site
					{
						OFFSET 0.000000 3.130435 0.000000 
					}
				}
			}
			JOINT lCollar
			{
				OFFSET 3.470700 6.669187 -0.816635 
				CHANNELS 3 Yrotation Zrotation Xrotation
				JOINT lShldr
				{
					OFFSET 3.198488 0.000000 0.000000 
					CHANNELS 3 Zrotation Yrotation Xrotation
					JOINT lForeArm
					{
						OFFSET 10.139888 0.000000 0.000000 
						CHANNELS 3 Yrotation Zrotation Xrotation
						JOINT lHand
						{
							OFFSET 8.370511 0.000000 0.000000 
							CHANNELS 3 Zrotation Yrotation Xrotation
							End Site
							{
								OFFSET 4.083176 0.000000 0.000000 
							}
						}
					}
				}
			}
			JOINT rCollar
			{
				OFFSET -3.470700 6.669187 -0.816635 
				CHANNELS 3 Yrotation Zrotation Xrotation
				JOINT rShldr
				{
					OFFSET -3.198488 0.000000 0.000000 
					CHANNELS 3 Zrotation Yrotation Xrotation
					JOINT rForeArm
					{
						OFFSET -10.139888 0.000000 0.000000 
						CHANNELS 3 Yrotation Zrotation Xrotation
						JOINT rHand
						{
							OFFSET -8.370511 0.000000 0.000000 
							CHANNELS 3 Zrotation Yrotation Xrotation
							End Site
							{
								OFFSET -4.083176 0.000000 0.000000 
							}
						}
					}
				}
			}
		}
	}
	JOINT lThigh
	{
		OFFSET 5.308129 -1.633274 1.361059 
		CHANNELS 3 Xrotation Zrotation Yrotation
		JOINT lShin
		{
			OFFSET -2.041588 -20.007561 0.000000 
			CHANNELS 3 Xrotation Zrotation Yrotation
			JOINT lFoot
			{
				OFFSET 0.000000 -19.190928 -1.224953 
				CHANNELS 3 Xrotation Yrotation Zrotation
				End Site
				{
					OFFSET 0.000000 -2.449906 4.627600 
				}
			}
		}
	}
	JOINT rThigh
	{
		OFFSET -5.308129 -1.633274 1.361059 
		CHANNELS 3 Xrotation Zrotation Yrotation
		JOINT rShin
		{
			OFFSET 2.041588 -20.007561 0.000000 
			CHANNELS 3 Xrotation Zrotation Yrotation
			JOINT rFoot
			{
				OFFSET 0.000000 -19.190928 -1.224953 
				CHANNELS 3 Xrotation Yrotation Zrotation
				End Site
				{
					OFFSET 0.000000 -2.449906 4.627600 
				}
			}
		}
	}
}
MOTION
Frames: 20
Frame Time: 0.016667
-4.601417 43.089882 -9.127941 1.757813 -1.845703 62.460625 0.000000 0.000000 0.000000 -0.195313 0.156250 -0.107422 20.908203 -1.884766 0.380859 -1.435547 1.708984 0.351563 -3.740235 -23.710938 -1.640625 -27.871094 -2.558594 -21.425779 -12.011719 -2.294922 46.191795 3.193359 0.458984 -5.693359 5.683594 25.000000 -1.801002 15.156251 0.908203 -27.753752 9.843750 8.085938 53.222660 -8.046876 -2.441406 -6.025391 -6.311795 3.686741 5.094116 12.963787 -1.935859 -6.536250 -11.293171 0.301682 -2.487018 -5.818063 1.591060 -0.691145 11.586789 -3.250646 1.646018 -9.696629 -0.088618 -0.085651 
-4.533676 43.106812 -9.143281 1.513672 -1.464844 62.392582 0.000000 0.000000 0.000000 -0.185547 0.214844 -0.097656 21.767578 -1.767578 0.390324 -1.865235 1.699219 0.302734 -3.564453 -21.533203 -1.533203 -20.742188 -2.519531 -23.427732 -10.791015 -1.494141 46.894779 3.632813 0.888672 -5.722656 5.244141 25.000000 -1.547096 8.925781 0.800781 -30.185547 9.033203 6.894530 53.369141 -8.027345 -2.617188 -6.005859 -5.676643 3.627337 5.118745 12.777727 -1.865369 -6.470964 -11.277640 0.268590 -2.318906 -5.204467 1.649679 -0.803909 11.355412 -3.388256 1.837966 -9.530699 -0.072644 -0.099410 
-4.496408 43.115509 -9.161561 1.289063 -1.083984 62.353516 0.000000 0.000000 0.000000 -0.175781 0.166016 -0.117188 22.617186 -1.230469 0.283203 -2.265625 1.337891 0.390853 -3.457031 -19.023436 -1.445313 -14.423830 -2.900391 -25.869143 -9.140625 -0.312500 47.880863 3.720703 1.210938 -5.712684 4.628906 22.685545 -1.328125 3.710938 1.455078 -32.392330 8.320313 5.664063 53.250984 -8.574219 -2.900391 -6.025390 -5.122431 3.589885 5.215053 12.664199 -1.797031 -6.585279 -11.197371 0.292692 -2.414968 -4.579031 1.640189 -0.809220 11.115089 -3.425206 1.940130 -9.413527 -0.078637 -0.080584 
-4.485921 43.115509 -9.182633 1.054688 -0.791013 62.412056 0.000000 0.000000 0.000000 -0.175781 0.068359 -0.146484 23.535156 -0.380859 0.097591 -2.792969 0.791016 0.507946 -3.330078 -16.240234 -1.396484 -9.414063 -3.544922 -28.857424 -8.242188 1.171875 47.871090 4.072266 1.455078 -5.722656 3.906250 19.580078 -1.175148 -0.400391 2.236328 -34.169922 9.013672 4.785156 52.157814 -9.580078 -3.798828 -6.016272 -4.755109 3.719990 5.420310 12.736303 -1.836178 -6.943597 -11.156510 0.351601 -2.819419 -4.042275 1.678616 -0.811114 10.838718 -3.398237 1.901353 -9.257306 -0.083007 -0.060954 
-4.488579 43.115509 -9.206313 0.830078 -0.595703 62.499939 0.000000 0.000000 0.000000 -0.205078 0.029297 -0.195307 24.287109 0.449190 -0.107365 -3.330078 0.234375 0.673828 -3.085938 -13.378906 -1.435602 -5.888671 -4.384766 -31.914810 -8.457032 2.587891 46.728516 4.726563 1.826172 -5.761436 3.281250 16.660156 -1.142578 -3.447266 2.939453 -35.380859 10.927734 4.287109 50.664063 -10.546875 -4.755859 -5.976563 -4.488884 3.863740 5.580956 12.767019 -1.926228 -7.158066 -11.139420 0.368959 -3.027597 -3.631663 1.756601 -0.900563 10.536478 -3.349555 1.902491 -9.110873 -0.081575 -0.049365 
-4.501379 43.115509 -9.232413 0.693359 -0.498047 62.480465 0.000000 0.000000 0.000000 -0.205078 0.029297 -0.234370 24.716799 1.132813 -0.204885 -3.710938 -0.283203 0.869141 -2.675781 -10.605469 -1.494141 -3.710938 -5.234375 -34.151279 -9.355469 3.525390 45.332035 5.517578 2.246094 -5.810546 2.832031 13.925780 -1.132813 -5.585938 3.876954 -36.112621 12.802733 3.867188 49.443359 -11.435546 -4.980468 -6.016471 -4.282938 3.872364 5.701415 12.588504 -1.955242 -7.063367 -11.083166 0.311552 -2.632722 -3.395632 1.765449 -0.997268 10.287862 -3.279627 2.002748 -9.023100 -0.069286 -0.043483 
-4.521365 43.115509 -9.269037 0.615234 -0.468750 62.353516 0.000000 0.000000 0.000000 -0.224609 0.029297 -0.244141 24.931643 1.621094 -0.185271 -4.013672 -0.742196 1.035018 -2.226563 -8.125000 -1.533203 -2.363281 -5.976563 -35.098671 -10.166015 3.847656 44.423172 6.318359 2.460938 -5.859375 2.519531 11.660156 -1.095724 -7.158204 5.244141 -36.884762 13.681640 3.408203 49.003616 -12.167969 -4.687500 -6.093750 -4.115459 3.870527 5.773877 12.282464 -1.992208 -6.893880 -10.913735 0.201329 -1.970695 -3.290740 1.747249 -1.115897 10.082724 -3.250252 2.217793 -8.993809 -0.072260 -0.034098 
-4.545559 43.115509 -9.330749 0.556641 -0.458984 62.187500 0.000000 0.000000 0.000000 -0.224609 0.029297 -0.214844 25.068357 1.845703 -0.117188 -4.335938 -0.957031 1.054687 -1.845703 -6.250000 -1.512609 -1.298828 -6.777344 -35.244141 -10.390625 3.837891 44.023434 6.757813 2.353516 -5.907841 2.373047 10.019532 -1.044922 -8.281250 6.738281 -37.939449 13.437500 3.105469 49.570309 -12.363282 -4.501954 -6.142579 -4.027145 3.918621 5.889941 12.075168 -2.080124 -6.782897 -10.802443 0.172916 -1.702461 -3.230086 1.736023 -1.130680 9.853319 -3.250127 2.294086 -8.945094 -0.072710 0.008783 
-4.577629 43.115509 -9.403006 0.498047 -0.439452 62.080040 0.000000 0.000000 0.000000 -0.205078 0.029297 -0.156245 25.107424 1.718750 0.000293 -4.482422 -0.820313 0.917969 -1.533203 -5.126953 -1.454205 -0.468750 -7.851562 -35.380859 -10.009766 3.886719 43.817696 6.572266 2.138672 -5.908204 2.373047 8.789063 -0.976563 -8.818359 8.007812 -38.690048 12.597656 2.988281 50.341290 -11.982422 -4.501953 -6.113282 -3.959022 3.928519 5.917356 11.852256 -2.140846 -6.639119 -10.688996 0.186145 -1.944532 -3.155934 1.704420 -1.194057 9.615307 -3.240839 2.389922 -8.857181 -0.102686 0.091583 
-4.623321 43.115509 -9.481674 0.458984 -0.439453 62.050713 0.000000 0.000000 0.000000 -0.205078 0.048828 -0.097656 24.882811 1.376953 0.117188 -4.287109 -0.556641 0.751858 -1.318359 -4.609375 -1.445313 -0.058594 -9.013672 -35.751957 -9.414063 4.052734 43.525391 6.025390 2.060547 -5.869141 2.460938 7.812500 -0.937500 -8.730468 8.955078 -38.894962 11.728517 2.958984 50.624493 -11.533204 -4.355469 -6.093750 -3.933100 3.903272 5.886502 11.652137 -2.179605 -6.494764 -10.627123 0.270807 -2.173445 -3.176925 1.636409 -1.237350 9.482891 -3.201594 2.420201 -8.818190 -0.093224 0.225164 
-4.667239 43.115509 -9.552073 0.458984 -0.478516 62.119061 0.000000 0.000000 0.000000 -0.205078 0.078125 -0.078112 24.589844 1.162109 0.166214 -4.111328 -0.488281 0.673828 -1.289063 -4.443359 -1.435547 -0.068359 -9.882813 -35.966801 -8.857421 4.150391 43.192646 5.458984 2.060547 -5.810547 2.539063 7.265625 -0.947266 -8.437500 9.677734 -38.876953 11.074218 2.988281 50.498047 -11.416016 -4.062500 -6.132812 -3.991631 3.873981 5.867984 11.507683 -2.228393 -6.402777 -10.558461 0.221264 -2.110721 -3.297352 1.579677 -1.308173 9.469070 -3.190327 2.352710 -8.817739 -0.087252 0.378599 
-4.691207 43.115509 -9.609147 0.478516 -0.595702 62.275322 0.000000 0.000000 0.000000 -0.205078 0.068359 -0.068348 24.414063 1.201172 0.107422 -4.384766 -0.644531 0.654187 -1.455078 -4.501953 -1.405483 -0.185547 -10.273438 -35.791016 -8.359375 4.101563 43.055939 4.931641 1.933594 -5.780919 2.500000 7.324219 -0.937500 -8.378906 10.205079 -38.710934 10.712891 3.134765 50.273438 -11.464844 -3.964844 -6.142578 -4.145400 3.871229 5.951500 11.434114 -2.287302 -6.510369 -10.503975 0.182397 -1.912961 -3.490727 1.578714 -1.285516 9.490599 -3.210576 2.175908 -8.846627 -0.154477 0.529919 
-4.705149 43.115509 -9.662778 0.517578 -0.761719 62.480335 0.000000 0.000000 0.000000 -0.195313 0.029297 -0.087891 24.248045 1.396484 -0.019531 -4.990234 -0.830078 0.664064 -1.708984 -4.736328 -1.337891 -0.244141 -10.361329 -35.419922 -7.871093 3.964844 43.192680 4.453125 1.630859 -5.761718 2.324219 7.695313 -0.899745 -8.486328 10.458985 -38.261719 10.722656 3.476563 49.931637 -11.298828 -4.150391 -6.103516 -4.364812 3.896009 6.028783 11.359737 -2.335647 -6.695276 -10.448011 0.199265 -1.839562 -3.714673 1.578551 -1.245836 9.478560 -3.219504 1.911325 -8.777913 -0.149511 0.586011 
-4.712480 43.115509 -9.718875 0.585938 -0.927734 62.685551 0.000000 0.000000 0.000000 -0.175781 0.009766 -0.117188 23.925781 1.582031 -0.166016 -5.390625 -0.908203 0.683594 -1.884766 -4.951172 -1.308594 -0.371094 -10.390625 -35.087891 -7.421875 3.857422 43.397778 4.179688 1.337891 -5.741958 2.109375 7.949219 -0.880257 -8.466797 10.488281 -37.722836 10.996094 3.828125 49.452477 -10.839844 -4.248047 -6.054688 -4.598932 3.905545 6.066480 11.325185 -2.433514 -6.886014 -10.366811 0.182631 -1.923006 -3.947769 1.510245 -1.287142 9.469127 -3.170874 1.797147 -8.641189 -0.128936 0.563293 
-4.713194 43.115509 -9.770540 0.644531 -1.044922 62.802559 0.000000 0.000000 0.000000 -0.175781 0.000000 -0.146484 23.564451 1.757813 -0.253906 -5.439453 -0.947266 0.693198 -1.914063 -5.078125 -1.328125 -0.556641 -10.429688 -34.912109 -7.001954 3.808594 43.408199 4.150391 1.191406 -5.751953 2.050781 7.988281 -0.898438 -8.320312 10.429687 -37.566597 11.113281 3.925782 49.081364 -10.312500 -4.042969 -6.045609 -4.723816 3.874172 6.099235 11.252415 -2.521068 -7.064146 -10.245228 0.220908 -2.120048 -4.082365 1.405747 -1.369852 9.396819 -3.103050 1.849344 -8.465879 -0.165275 0.513980 
-4.707283 43.115509 -9.799571 0.673828 -1.113281 62.822346 0.000000 0.000000 0.000000 -0.195313 0.000000 -0.126953 23.437500 1.933594 -0.321936 -5.361329 -0.986328 0.605469 -1.865234 -5.234375 -1.357422 -0.507813 -10.498047 -34.931641 -6.572266 3.818359 43.202473 4.169922 1.171875 -5.751752 2.099609 7.978515 -0.917969 -8.232422 10.488280 -38.017578 10.791015 3.652344 49.160156 -9.853516 -3.720703 -6.055320 -4.740878 3.852159 6.108896 11.138833 -2.570087 -7.178014 -10.077728 0.256072 -2.210237 -4.097770 1.355995 -1.372358 9.284388 -3.104587 1.819001 -8.348275 -0.155874 0.582771 
-4.694768 43.115509 -9.818210 0.654297 -1.152344 62.832031 0.000000 0.000000 0.000000 -0.175781 0.009766 -0.117188 23.535156 2.011719 -0.321923 -5.273438 -0.927734 0.478516 -1.748047 -5.507813 -1.347656 -0.185547 -10.605469 -35.126953 -6.152344 3.906250 42.958317 4.062500 1.162109 -5.751753 2.080078 7.958985 -0.899790 -8.261719 10.712891 -38.857422 10.146484 3.154297 49.638668 -9.521484 -3.476563 -6.045514 -4.643378 3.803439 6.094475 10.910577 -2.519056 -7.141200 -9.925117 0.235549 -2.057301 -4.040519 1.355940 -1.289354 9.168571 -3.163649 1.648122 -8.298671 -0.183811 0.720122 
-4.668908 43.115509 -9.833145 0.615234 -1.162109 62.871094 0.000000 0.000000 0.000000 -0.195313 0.009766 -0.107422 23.583984 2.031250 -0.273437 -5.078125 -0.791016 0.419922 -1.660156 -5.615262 -1.366226 0.068359 -10.693357 -35.343601 -5.849610 4.013672 42.812496 3.906250 1.064453 -5.732239 1.914063 7.871094 -0.938837 -8.300781 11.005859 -39.597744 9.560547 2.705078 50.116726 -9.326172 -3.291016 -6.055249 -4.499097 3.756819 6.029484 10.684937 -2.511144 -7.049345 -9.835005 0.181294 -1.705061 -3.968933 1.394210 -1.243291 9.129272 -3.212402 1.449325 -8.268896 -0.176785 0.766312 
-4.629220 43.115509 -9.844667 0.595703 -1.162109 62.949017 0.000000 0.000000 0.000000 -0.224609 0.009766 -0.107422 23.515625 2.041015 -0.175433 -4.853516 -0.712891 0.458984 -1.640625 -5.400417 -1.483449 -0.019531 -10.712891 -35.449219 -5.664063 4.101563 42.753208 3.867188 0.957031 -5.742023 1.708984 7.714844 -1.085295 -8.251953 11.162109 -39.959049 9.277344 2.470703 50.302734 -9.306642 -3.125000 -6.064454 -4.440006 3.756248 6.095959 10.633725 -2.538337 -7.223362 -9.768276 0.182438 -1.639469 -3.945318 1.415220 -1.162592 9.164366 -3.250134 1.290796 -8.239913 -0.178548 0.733253 
-4.594242 43.115509 -9.853096 0.595703 -1.132813 63.007813 0.000000 0.000000 0.000000 -0.253906 -0.019531 -0.107422 23.593750 1.943359 -0.146484 -4.824219 -0.751953 0.507684 -1.660156 -5.146484 -1.611328 -0.214844 -10.683600 -35.499870 -5.546875 4.140625 42.704376 3.896484 0.957031 -5.742188 1.611328 7.500000 -1.210938 -8.154297 11.142578 -39.988346 9.189452 2.431641 50.234371 -9.423828 -3.056641 -6.084506 -4.419982 3.765450 6.193504 10.746725 -2.577937 -7.506102 -9.770949 0.208001 -1.940252 -3.924498 1.395180 -1.092765 9.259909 -3.315769 1.180006 -8.229445 -0.166398 0.792564 
